<mxfile host="65bd71144e" pages="7">
    <diagram id="1X3qqOPAHMiYeAOTJud8" name="总体架构">
        <mxGraphModel dx="487" dy="776" grid="1" gridSize="10" guides="1" tooltips="1" connect="1" arrows="1" fold="1" page="1" pageScale="1" pageWidth="827" pageHeight="1169" math="0" shadow="0">
            <root>
                <mxCell id="KAA0e6ewD5E3a4gkEQYl-0"/>
                <mxCell id="KAA0e6ewD5E3a4gkEQYl-1" parent="KAA0e6ewD5E3a4gkEQYl-0"/>
                <mxCell id="A7PCERtlvKt-KsGc9oNL-0" value="配置服务" style="rounded=1;whiteSpace=wrap;html=1;" parent="KAA0e6ewD5E3a4gkEQYl-1" vertex="1">
                    <mxGeometry x="996" y="260" width="120" height="60" as="geometry"/>
                </mxCell>
                <mxCell id="A7PCERtlvKt-KsGc9oNL-1" value="clientv3(grpc/http)" style="endArrow=classic;html=1;startArrow=classic;startFill=1;" parent="KAA0e6ewD5E3a4gkEQYl-1" source="A7PCERtlvKt-KsGc9oNL-0" target="A7PCERtlvKt-KsGc9oNL-5" edge="1">
                    <mxGeometry width="50" height="50" relative="1" as="geometry">
                        <mxPoint x="1027" y="220" as="sourcePoint"/>
                        <mxPoint x="1197" y="395" as="targetPoint"/>
                    </mxGeometry>
                </mxCell>
                <mxCell id="A7PCERtlvKt-KsGc9oNL-2" value="配置端（前端）" style="rounded=1;whiteSpace=wrap;html=1;" parent="KAA0e6ewD5E3a4gkEQYl-1" vertex="1">
                    <mxGeometry x="996" y="40" width="120" height="60" as="geometry"/>
                </mxCell>
                <mxCell id="A7PCERtlvKt-KsGc9oNL-3" value="http" style="endArrow=classic;html=1;horizontal=1;startArrow=classic;startFill=1;" parent="KAA0e6ewD5E3a4gkEQYl-1" source="A7PCERtlvKt-KsGc9oNL-2" target="rfTJAkQ8QG8a4X35dGVz-1" edge="1">
                    <mxGeometry width="50" height="50" relative="1" as="geometry">
                        <mxPoint x="950" y="150" as="sourcePoint"/>
                        <mxPoint x="950" y="260" as="targetPoint"/>
                    </mxGeometry>
                </mxCell>
                <mxCell id="A7PCERtlvKt-KsGc9oNL-5" value="&lt;span style=&quot;color: rgb(0 , 0 , 0) ; font-family: &amp;#34;helvetica&amp;#34; ; font-size: 12px ; font-style: normal ; font-weight: 400 ; letter-spacing: normal ; text-align: center ; text-indent: 0px ; text-transform: none ; word-spacing: 0px ; background-color: rgb(248 , 249 , 250) ; display: inline ; float: none&quot;&gt;etcd&lt;/span&gt;" style="shape=cylinder3;whiteSpace=wrap;html=1;boundedLbl=1;backgroundOutline=1;size=15;" parent="KAA0e6ewD5E3a4gkEQYl-1" vertex="1">
                    <mxGeometry x="1026" y="380" width="60" height="80" as="geometry"/>
                </mxCell>
                <mxCell id="lH45oiCETYAU4a6Qy7qv-1" value="&lt;meta charset=&quot;utf-8&quot;&gt;&lt;span style=&quot;color: rgb(0, 0, 0); font-family: helvetica; font-size: 11px; font-style: normal; font-weight: 400; letter-spacing: normal; text-align: center; text-indent: 0px; text-transform: none; word-spacing: 0px; background-color: rgb(255, 255, 255); display: inline; float: none;&quot;&gt;clientv3(grpc/http)&lt;/span&gt;" style="edgeStyle=orthogonalEdgeStyle;rounded=0;orthogonalLoop=1;jettySize=auto;html=1;entryX=1;entryY=0.5;entryDx=0;entryDy=0;entryPerimeter=0;startArrow=none;startFill=0;endArrow=classic;endFill=1;exitX=0;exitY=0.5;exitDx=0;exitDy=0;" parent="KAA0e6ewD5E3a4gkEQYl-1" source="lH45oiCETYAU4a6Qy7qv-0" target="A7PCERtlvKt-KsGc9oNL-5" edge="1">
                    <mxGeometry relative="1" as="geometry"/>
                </mxCell>
                <mxCell id="lH45oiCETYAU4a6Qy7qv-0" value="部署/操作中心" style="rounded=0;whiteSpace=wrap;html=1;" parent="KAA0e6ewD5E3a4gkEQYl-1" vertex="1">
                    <mxGeometry x="1200" y="390" width="120" height="60" as="geometry"/>
                </mxCell>
                <mxCell id="rfTJAkQ8QG8a4X35dGVz-1" value="envoy" style="rounded=1;whiteSpace=wrap;html=1;" parent="KAA0e6ewD5E3a4gkEQYl-1" vertex="1">
                    <mxGeometry x="996" y="150" width="120" height="60" as="geometry"/>
                </mxCell>
                <mxCell id="rfTJAkQ8QG8a4X35dGVz-2" value="grpc" style="endArrow=classic;html=1;horizontal=1;startArrow=classic;startFill=1;" parent="KAA0e6ewD5E3a4gkEQYl-1" edge="1">
                    <mxGeometry width="50" height="50" relative="1" as="geometry">
                        <mxPoint x="1055.5" y="210" as="sourcePoint"/>
                        <mxPoint x="1055.5" y="260" as="targetPoint"/>
                    </mxGeometry>
                </mxCell>
            </root>
        </mxGraphModel>
    </diagram>
    <diagram id="SnNu24Lm_NKvO9PNE2EM" name="层级结构">
        <mxGraphModel dx="1314" dy="776" grid="1" gridSize="5" guides="1" tooltips="1" connect="1" arrows="1" fold="1" page="1" pageScale="1" pageWidth="827" pageHeight="1169" math="0" shadow="0">
            <root>
                <mxCell id="frMDC3H8Q9lRzjkHUVK3-0"/>
                <mxCell id="frMDC3H8Q9lRzjkHUVK3-1" parent="frMDC3H8Q9lRzjkHUVK3-0"/>
                <mxCell id="1MtRLpMQDwLx-iQNgUPP-0" value="" style="rounded=0;whiteSpace=wrap;html=1;" parent="frMDC3H8Q9lRzjkHUVK3-1" vertex="1">
                    <mxGeometry x="250" y="85" width="510" height="285" as="geometry"/>
                </mxCell>
                <mxCell id="frMDC3H8Q9lRzjkHUVK3-3" value="" style="rounded=0;whiteSpace=wrap;html=1;fontSize=10;fillColor=#f5f5f5;strokeColor=#666666;fontColor=#333333;" parent="frMDC3H8Q9lRzjkHUVK3-1" vertex="1">
                    <mxGeometry x="255" y="130" width="500" height="235" as="geometry"/>
                </mxCell>
                <mxCell id="AbZzxbGtGDxxiaTbC9_T-3" value="" style="rounded=0;whiteSpace=wrap;html=1;fillColor=#f9f7ed;strokeColor=#36393d;" parent="frMDC3H8Q9lRzjkHUVK3-1" vertex="1">
                    <mxGeometry x="645" y="150" width="105" height="210" as="geometry"/>
                </mxCell>
                <mxCell id="AbZzxbGtGDxxiaTbC9_T-0" value="" style="rounded=0;whiteSpace=wrap;html=1;fillColor=#f9f7ed;strokeColor=#36393d;" parent="frMDC3H8Q9lRzjkHUVK3-1" vertex="1">
                    <mxGeometry x="260" y="150" width="380" height="210" as="geometry"/>
                </mxCell>
                <mxCell id="frMDC3H8Q9lRzjkHUVK3-4" value="" style="rounded=0;whiteSpace=wrap;html=1;fontSize=10;fillColor=#f5f5f5;strokeColor=#666666;fontColor=#333333;" parent="frMDC3H8Q9lRzjkHUVK3-1" vertex="1">
                    <mxGeometry x="255" y="105" width="500" height="20" as="geometry"/>
                </mxCell>
                <mxCell id="frMDC3H8Q9lRzjkHUVK3-5" value="物理设施配置数据库" style="text;html=1;strokeColor=none;fillColor=none;align=center;verticalAlign=middle;whiteSpace=wrap;rounded=0;fontSize=10;" parent="frMDC3H8Q9lRzjkHUVK3-1" vertex="1">
                    <mxGeometry x="255" y="105" width="500" height="20" as="geometry"/>
                </mxCell>
                <mxCell id="frMDC3H8Q9lRzjkHUVK3-6" value="节点配置数据库(ConfigData)" style="text;html=1;strokeColor=none;fillColor=none;align=center;verticalAlign=middle;whiteSpace=wrap;rounded=0;fontSize=10;" parent="frMDC3H8Q9lRzjkHUVK3-1" vertex="1">
                    <mxGeometry x="260" y="130" width="495" height="20" as="geometry"/>
                </mxCell>
                <mxCell id="frMDC3H8Q9lRzjkHUVK3-7" value="" style="rounded=0;whiteSpace=wrap;html=1;fontSize=10;fillColor=#dae8fc;strokeColor=#6c8ebf;" parent="frMDC3H8Q9lRzjkHUVK3-1" vertex="1">
                    <mxGeometry x="265" y="170" width="270" height="185" as="geometry"/>
                </mxCell>
                <mxCell id="frMDC3H8Q9lRzjkHUVK3-8" value="最新版本(ConfigVersion)" style="text;html=1;strokeColor=none;fillColor=none;align=center;verticalAlign=middle;whiteSpace=wrap;rounded=0;fontSize=10;" parent="frMDC3H8Q9lRzjkHUVK3-1" vertex="1">
                    <mxGeometry x="265" y="170" width="270" height="20" as="geometry"/>
                </mxCell>
                <mxCell id="1MtRLpMQDwLx-iQNgUPP-2" value="配置中心" style="text;html=1;strokeColor=none;fillColor=none;align=center;verticalAlign=middle;whiteSpace=wrap;rounded=0;fontSize=10;" parent="frMDC3H8Q9lRzjkHUVK3-1" vertex="1">
                    <mxGeometry x="250" y="85" width="510" height="20" as="geometry"/>
                </mxCell>
                <mxCell id="1MtRLpMQDwLx-iQNgUPP-25" value="..." style="text;html=1;strokeColor=none;fillColor=none;align=center;verticalAlign=middle;whiteSpace=wrap;rounded=0;fontStyle=1" parent="frMDC3H8Q9lRzjkHUVK3-1" vertex="1">
                    <mxGeometry x="515" y="257.5" width="20" height="10" as="geometry"/>
                </mxCell>
                <mxCell id="1MtRLpMQDwLx-iQNgUPP-29" value="v1.05" style="rounded=0;whiteSpace=wrap;html=1;fillColor=#dae8fc;strokeColor=#6c8ebf;" parent="frMDC3H8Q9lRzjkHUVK3-1" vertex="1">
                    <mxGeometry x="540" y="170" width="95" height="30" as="geometry"/>
                </mxCell>
                <mxCell id="1MtRLpMQDwLx-iQNgUPP-30" value="v1.00" style="rounded=0;whiteSpace=wrap;html=1;fillColor=#dae8fc;strokeColor=#6c8ebf;" parent="frMDC3H8Q9lRzjkHUVK3-1" vertex="1">
                    <mxGeometry x="540" y="205" width="95" height="30" as="geometry"/>
                </mxCell>
                <mxCell id="1MtRLpMQDwLx-iQNgUPP-24" value="..." style="text;html=1;strokeColor=none;fillColor=none;align=center;verticalAlign=middle;whiteSpace=wrap;rounded=0;fontStyle=1" parent="frMDC3H8Q9lRzjkHUVK3-1" vertex="1">
                    <mxGeometry x="567.5" y="247.5" width="40" height="10" as="geometry"/>
                </mxCell>
                <mxCell id="frMDC3H8Q9lRzjkHUVK3-9" value="" style="rounded=0;whiteSpace=wrap;html=1;fontSize=10;fillColor=#d5e8d4;strokeColor=#82b366;" parent="frMDC3H8Q9lRzjkHUVK3-1" vertex="1">
                    <mxGeometry x="270" y="190" width="120" height="160" as="geometry"/>
                </mxCell>
                <mxCell id="frMDC3H8Q9lRzjkHUVK3-10" value="00环境(Environment)" style="text;html=1;strokeColor=none;fillColor=none;align=center;verticalAlign=middle;whiteSpace=wrap;rounded=0;fontSize=10;" parent="frMDC3H8Q9lRzjkHUVK3-1" vertex="1">
                    <mxGeometry x="270" y="190" width="120" height="20" as="geometry"/>
                </mxCell>
                <mxCell id="1MtRLpMQDwLx-iQNgUPP-6" value="" style="rounded=0;whiteSpace=wrap;html=1;fontSize=10;fillColor=#ffe6cc;strokeColor=#d79b00;" parent="frMDC3H8Q9lRzjkHUVK3-1" vertex="1">
                    <mxGeometry x="273.18" y="310" width="111.82" height="25" as="geometry"/>
                </mxCell>
                <mxCell id="1MtRLpMQDwLx-iQNgUPP-7" value="DTP.RC.Group1" style="text;html=1;strokeColor=none;fillColor=none;align=center;verticalAlign=middle;whiteSpace=wrap;rounded=0;fontSize=10;" parent="frMDC3H8Q9lRzjkHUVK3-1" vertex="1">
                    <mxGeometry x="273.76" y="310" width="111.24" height="20" as="geometry"/>
                </mxCell>
                <mxCell id="1MtRLpMQDwLx-iQNgUPP-11" value="..." style="text;html=1;strokeColor=none;fillColor=none;align=center;verticalAlign=middle;whiteSpace=wrap;rounded=0;fontStyle=1" parent="frMDC3H8Q9lRzjkHUVK3-1" vertex="1">
                    <mxGeometry x="309.09" y="335" width="40" height="10" as="geometry"/>
                </mxCell>
                <mxCell id="1MtRLpMQDwLx-iQNgUPP-14" value="" style="rounded=0;whiteSpace=wrap;html=1;fontSize=10;fillColor=#d5e8d4;strokeColor=#82b366;" parent="frMDC3H8Q9lRzjkHUVK3-1" vertex="1">
                    <mxGeometry x="395" y="190" width="120" height="160" as="geometry"/>
                </mxCell>
                <mxCell id="1MtRLpMQDwLx-iQNgUPP-15" value="88环境" style="text;html=1;strokeColor=none;fillColor=none;align=center;verticalAlign=middle;whiteSpace=wrap;rounded=0;fontSize=10;" parent="frMDC3H8Q9lRzjkHUVK3-1" vertex="1">
                    <mxGeometry x="395" y="190" width="120" height="20" as="geometry"/>
                </mxCell>
                <mxCell id="1MtRLpMQDwLx-iQNgUPP-22" value="" style="rounded=0;whiteSpace=wrap;html=1;fontSize=10;fillColor=#ffe6cc;strokeColor=#d79b00;" parent="frMDC3H8Q9lRzjkHUVK3-1" vertex="1">
                    <mxGeometry x="398.5" y="289" width="111.5" height="46" as="geometry"/>
                </mxCell>
                <mxCell id="1MtRLpMQDwLx-iQNgUPP-23" value="DTP.RC.Group1" style="text;html=1;strokeColor=none;fillColor=none;align=center;verticalAlign=middle;whiteSpace=wrap;rounded=0;fontSize=10;" parent="frMDC3H8Q9lRzjkHUVK3-1" vertex="1">
                    <mxGeometry x="399.5" y="289" width="110.5" height="20" as="geometry"/>
                </mxCell>
                <mxCell id="frMDC3H8Q9lRzjkHUVK3-11" value="" style="rounded=0;whiteSpace=wrap;html=1;fontSize=10;fillColor=#ffe6cc;strokeColor=#d79b00;" parent="frMDC3H8Q9lRzjkHUVK3-1" vertex="1">
                    <mxGeometry x="273.5" y="210" width="111.5" height="95" as="geometry"/>
                </mxCell>
                <mxCell id="frMDC3H8Q9lRzjkHUVK3-12" value="DTP.MC.Set1(Node)" style="text;html=1;align=center;verticalAlign=middle;whiteSpace=wrap;rounded=0;fontSize=10;" parent="frMDC3H8Q9lRzjkHUVK3-1" vertex="1">
                    <mxGeometry x="275" y="210" width="110" height="20" as="geometry"/>
                </mxCell>
                <mxCell id="frMDC3H8Q9lRzjkHUVK3-14" value="应用配置(AppConfig)" style="rounded=0;whiteSpace=wrap;html=1;fontSize=8;horizontal=1;" parent="frMDC3H8Q9lRzjkHUVK3-1" vertex="1">
                    <mxGeometry x="279.09" y="230" width="100" height="20" as="geometry"/>
                </mxCell>
                <mxCell id="_CpGVqF00zmXJLr7UBIy-0" value="接口配置(InterfaceConfig)" style="rounded=0;whiteSpace=wrap;html=1;fontSize=8;" parent="frMDC3H8Q9lRzjkHUVK3-1" vertex="1">
                    <mxGeometry x="279.09" y="280" width="100.91" height="20" as="geometry"/>
                </mxCell>
                <mxCell id="1MtRLpMQDwLx-iQNgUPP-17" value="" style="rounded=0;whiteSpace=wrap;html=1;fontSize=10;fillColor=#ffe6cc;strokeColor=#d79b00;" parent="frMDC3H8Q9lRzjkHUVK3-1" vertex="1">
                    <mxGeometry x="398.5" y="210" width="111.5" height="70" as="geometry"/>
                </mxCell>
                <mxCell id="1MtRLpMQDwLx-iQNgUPP-18" value="DTP.MC.Set1" style="text;html=1;align=center;verticalAlign=middle;whiteSpace=wrap;rounded=0;fontSize=10;" parent="frMDC3H8Q9lRzjkHUVK3-1" vertex="1">
                    <mxGeometry x="398.76" y="210" width="111.24" height="20" as="geometry"/>
                </mxCell>
                <mxCell id="1MtRLpMQDwLx-iQNgUPP-19" value="应用配置" style="rounded=0;whiteSpace=wrap;html=1;fontSize=10;horizontal=1;" parent="frMDC3H8Q9lRzjkHUVK3-1" vertex="1">
                    <mxGeometry x="404.81046296296296" y="230" width="45.598827160493826" height="20" as="geometry"/>
                </mxCell>
                <mxCell id="1MtRLpMQDwLx-iQNgUPP-20" value="接口配置" style="rounded=0;whiteSpace=wrap;html=1;fontSize=10;" parent="frMDC3H8Q9lRzjkHUVK3-1" vertex="1">
                    <mxGeometry x="456.1315740740741" y="230" width="45.598827160493826" height="20" as="geometry"/>
                </mxCell>
                <mxCell id="1MtRLpMQDwLx-iQNgUPP-21" value="操控配置" style="rounded=0;whiteSpace=wrap;html=1;fontSize=10;" parent="frMDC3H8Q9lRzjkHUVK3-1" vertex="1">
                    <mxGeometry x="404.8106790123457" y="255" width="45.598827160493826" height="20" as="geometry"/>
                </mxCell>
                <mxCell id="1MtRLpMQDwLx-iQNgUPP-34" value="周末演练测试基础配置" style="rounded=0;whiteSpace=wrap;html=1;fillColor=#dae8fc;strokeColor=#6c8ebf;" parent="frMDC3H8Q9lRzjkHUVK3-1" vertex="1">
                    <mxGeometry x="650" y="170" width="95" height="30" as="geometry"/>
                </mxCell>
                <mxCell id="1MtRLpMQDwLx-iQNgUPP-35" value="1月31日周末演练" style="rounded=0;whiteSpace=wrap;html=1;fillColor=#dae8fc;strokeColor=#6c8ebf;" parent="frMDC3H8Q9lRzjkHUVK3-1" vertex="1">
                    <mxGeometry x="650" y="205" width="95" height="30" as="geometry"/>
                </mxCell>
                <mxCell id="1MtRLpMQDwLx-iQNgUPP-37" value="..." style="text;html=1;strokeColor=none;fillColor=none;align=center;verticalAlign=middle;whiteSpace=wrap;rounded=0;fontStyle=1" parent="frMDC3H8Q9lRzjkHUVK3-1" vertex="1">
                    <mxGeometry x="434.25" y="335" width="40" height="10" as="geometry"/>
                </mxCell>
                <mxCell id="H_VRkDUQ_rx8H-O2tvIQ-2" value="部署配置(DeployConfig)" style="rounded=0;whiteSpace=wrap;html=1;fontSize=8;" parent="frMDC3H8Q9lRzjkHUVK3-1" vertex="1">
                    <mxGeometry x="279.09" y="255" width="100" height="20" as="geometry"/>
                </mxCell>
                <mxCell id="H_VRkDUQ_rx8H-O2tvIQ-4" value="部署配置" style="rounded=0;whiteSpace=wrap;html=1;fontSize=10;" parent="frMDC3H8Q9lRzjkHUVK3-1" vertex="1">
                    <mxGeometry x="456.45067901234563" y="255" width="45.598827160493826" height="20" as="geometry"/>
                </mxCell>
                <mxCell id="AbZzxbGtGDxxiaTbC9_T-1" value="正常模式(Mode)" style="text;html=1;strokeColor=none;fillColor=none;align=center;verticalAlign=middle;whiteSpace=wrap;rounded=0;fontSize=10;" parent="frMDC3H8Q9lRzjkHUVK3-1" vertex="1">
                    <mxGeometry x="260" y="150" width="385" height="20" as="geometry"/>
                </mxCell>
                <mxCell id="AbZzxbGtGDxxiaTbC9_T-4" value="测试模式" style="text;html=1;strokeColor=none;fillColor=none;align=center;verticalAlign=middle;whiteSpace=wrap;rounded=0;fontSize=10;" parent="frMDC3H8Q9lRzjkHUVK3-1" vertex="1">
                    <mxGeometry x="645" y="150" width="105" height="20" as="geometry"/>
                </mxCell>
                <mxCell id="AbZzxbGtGDxxiaTbC9_T-5" value="..." style="text;html=1;strokeColor=none;fillColor=none;align=center;verticalAlign=middle;whiteSpace=wrap;rounded=0;fontStyle=1" parent="frMDC3H8Q9lRzjkHUVK3-1" vertex="1">
                    <mxGeometry x="677.5" y="247.5" width="40" height="10" as="geometry"/>
                </mxCell>
            </root>
        </mxGraphModel>
    </diagram>
    <diagram id="I8Tu5ScAXy7tuQqMffPj" name="配置获取">
        <mxGraphModel dx="1314" dy="776" grid="1" gridSize="10" guides="1" tooltips="1" connect="1" arrows="1" fold="1" page="1" pageScale="1" pageWidth="827" pageHeight="1169" math="0" shadow="0">
            <root>
                <mxCell id="Sk8pdhV6gsqgfFt56WIu-0"/>
                <mxCell id="Sk8pdhV6gsqgfFt56WIu-1" parent="Sk8pdhV6gsqgfFt56WIu-0"/>
                <mxCell id="6J8LR1fGLPx4kdJ6sCfR-0" value="配置端" style="shape=umlLifeline;perimeter=lifelinePerimeter;whiteSpace=wrap;html=1;container=1;collapsible=0;recursiveResize=0;outlineConnect=0;fontSize=10;" parent="Sk8pdhV6gsqgfFt56WIu-1" vertex="1">
                    <mxGeometry x="180" y="130" width="100" height="170" as="geometry"/>
                </mxCell>
                <mxCell id="6J8LR1fGLPx4kdJ6sCfR-1" value="" style="html=1;points=[];perimeter=orthogonalPerimeter;fontSize=10;" parent="6J8LR1fGLPx4kdJ6sCfR-0" vertex="1">
                    <mxGeometry x="45" y="50" width="10" height="110" as="geometry"/>
                </mxCell>
                <mxCell id="6J8LR1fGLPx4kdJ6sCfR-3" value="配置服务" style="shape=umlLifeline;perimeter=lifelinePerimeter;whiteSpace=wrap;html=1;container=1;collapsible=0;recursiveResize=0;outlineConnect=0;fontSize=10;" parent="Sk8pdhV6gsqgfFt56WIu-1" vertex="1">
                    <mxGeometry x="320" y="130" width="100" height="170" as="geometry"/>
                </mxCell>
                <mxCell id="6J8LR1fGLPx4kdJ6sCfR-4" value="" style="html=1;points=[];perimeter=orthogonalPerimeter;fontSize=10;" parent="6J8LR1fGLPx4kdJ6sCfR-3" vertex="1">
                    <mxGeometry x="45" y="50" width="10" height="110" as="geometry"/>
                </mxCell>
                <mxCell id="6J8LR1fGLPx4kdJ6sCfR-6" value="etcd" style="shape=umlLifeline;perimeter=lifelinePerimeter;whiteSpace=wrap;html=1;container=1;collapsible=0;recursiveResize=0;outlineConnect=0;fontSize=10;" parent="Sk8pdhV6gsqgfFt56WIu-1" vertex="1">
                    <mxGeometry x="460" y="130" width="100" height="170" as="geometry"/>
                </mxCell>
                <mxCell id="6J8LR1fGLPx4kdJ6sCfR-7" value="" style="html=1;points=[];perimeter=orthogonalPerimeter;fontSize=10;" parent="6J8LR1fGLPx4kdJ6sCfR-6" vertex="1">
                    <mxGeometry x="45" y="50" width="10" height="110" as="geometry"/>
                </mxCell>
                <mxCell id="6J8LR1fGLPx4kdJ6sCfR-10" value="获取目标版本配置" style="endArrow=classic;html=1;entryX=0;entryY=0.146;entryDx=0;entryDy=0;entryPerimeter=0;exitX=1.01;exitY=0.147;exitDx=0;exitDy=0;exitPerimeter=0;fontSize=10;" parent="Sk8pdhV6gsqgfFt56WIu-1" edge="1">
                    <mxGeometry width="50" height="50" relative="1" as="geometry">
                        <mxPoint x="375.0999999999999" y="234.87000000000012" as="sourcePoint"/>
                        <mxPoint x="504.9999999999998" y="234.66000000000008" as="targetPoint"/>
                    </mxGeometry>
                </mxCell>
                <mxCell id="6J8LR1fGLPx4kdJ6sCfR-11" value="目标版本配置内容" style="endArrow=classic;html=1;fontSize=10;entryX=1;entryY=0.346;entryDx=0;entryDy=0;entryPerimeter=0;exitX=0;exitY=0.346;exitDx=0;exitDy=0;exitPerimeter=0;" parent="Sk8pdhV6gsqgfFt56WIu-1" edge="1">
                    <mxGeometry width="50" height="50" relative="1" as="geometry">
                        <mxPoint x="505" y="253.92599999999993" as="sourcePoint"/>
                        <mxPoint x="375" y="253.92599999999993" as="targetPoint"/>
                    </mxGeometry>
                </mxCell>
                <mxCell id="6J8LR1fGLPx4kdJ6sCfR-12" value="目标版本配置内容" style="endArrow=classic;html=1;fontSize=10;exitX=0.481;exitY=0.714;exitDx=0;exitDy=0;exitPerimeter=0;entryX=1.029;entryY=0.347;entryDx=0;entryDy=0;entryPerimeter=0;" parent="Sk8pdhV6gsqgfFt56WIu-1" edge="1">
                    <mxGeometry width="50" height="50" relative="1" as="geometry">
                        <mxPoint x="364.98" y="278" as="sourcePoint"/>
                        <mxPoint x="235.21000000000004" y="278.17700000000013" as="targetPoint"/>
                    </mxGeometry>
                </mxCell>
                <mxCell id="6J8LR1fGLPx4kdJ6sCfR-13" value="获取目标版本配置" style="endArrow=classic;html=1;exitX=1;exitY=0.095;exitDx=0;exitDy=0;exitPerimeter=0;entryX=-0.053;entryY=0.096;entryDx=0;entryDy=0;entryPerimeter=0;fontSize=10;" parent="Sk8pdhV6gsqgfFt56WIu-1" edge="1">
                    <mxGeometry width="50" height="50" relative="1" as="geometry">
                        <mxPoint x="235" y="215.95000000000005" as="sourcePoint"/>
                        <mxPoint x="364.47" y="216.15999999999985" as="targetPoint"/>
                    </mxGeometry>
                </mxCell>
            </root>
        </mxGraphModel>
    </diagram>
    <diagram id="zDpkCdK-WTpTuvXPhWbF" name="配置缓存">
        <mxGraphModel dx="1314" dy="776" grid="1" gridSize="10" guides="1" tooltips="1" connect="1" arrows="1" fold="1" page="1" pageScale="1" pageWidth="827" pageHeight="1169" math="0" shadow="0">
            <root>
                <mxCell id="347gWJok4PZvHm4m8MTc-0"/>
                <mxCell id="347gWJok4PZvHm4m8MTc-1" parent="347gWJok4PZvHm4m8MTc-0"/>
                <mxCell id="cEPV4Jp8pSuzJjNS0iWL-0" value="配置端" style="shape=umlLifeline;perimeter=lifelinePerimeter;whiteSpace=wrap;html=1;container=1;collapsible=0;recursiveResize=0;outlineConnect=0;fontSize=10;" parent="347gWJok4PZvHm4m8MTc-1" vertex="1">
                    <mxGeometry x="180" y="130" width="100" height="150" as="geometry"/>
                </mxCell>
                <mxCell id="cEPV4Jp8pSuzJjNS0iWL-1" value="" style="html=1;points=[];perimeter=orthogonalPerimeter;fontSize=10;" parent="cEPV4Jp8pSuzJjNS0iWL-0" vertex="1">
                    <mxGeometry x="45" y="50" width="10" height="90" as="geometry"/>
                </mxCell>
                <mxCell id="cEPV4Jp8pSuzJjNS0iWL-3" value="配置服务" style="shape=umlLifeline;perimeter=lifelinePerimeter;whiteSpace=wrap;html=1;container=1;collapsible=0;recursiveResize=0;outlineConnect=0;fontSize=10;" parent="347gWJok4PZvHm4m8MTc-1" vertex="1">
                    <mxGeometry x="320" y="130" width="100" height="150" as="geometry"/>
                </mxCell>
                <mxCell id="cEPV4Jp8pSuzJjNS0iWL-4" value="" style="html=1;points=[];perimeter=orthogonalPerimeter;fontSize=10;" parent="cEPV4Jp8pSuzJjNS0iWL-3" vertex="1">
                    <mxGeometry x="45" y="50" width="10" height="90" as="geometry"/>
                </mxCell>
                <mxCell id="cEPV4Jp8pSuzJjNS0iWL-5" value="保存配置" style="rounded=0;orthogonalLoop=1;jettySize=auto;html=1;fontSize=10;" parent="347gWJok4PZvHm4m8MTc-1" edge="1">
                    <mxGeometry relative="1" as="geometry">
                        <mxPoint x="235.0999999999999" y="200" as="sourcePoint"/>
                        <mxPoint x="365.0999999999999" y="200" as="targetPoint"/>
                    </mxGeometry>
                </mxCell>
                <mxCell id="cEPV4Jp8pSuzJjNS0iWL-6" value="etcd" style="shape=umlLifeline;perimeter=lifelinePerimeter;whiteSpace=wrap;html=1;container=1;collapsible=0;recursiveResize=0;outlineConnect=0;fontSize=10;" parent="347gWJok4PZvHm4m8MTc-1" vertex="1">
                    <mxGeometry x="460" y="130" width="100" height="150" as="geometry"/>
                </mxCell>
                <mxCell id="cEPV4Jp8pSuzJjNS0iWL-7" value="" style="html=1;points=[];perimeter=orthogonalPerimeter;fontSize=10;" parent="cEPV4Jp8pSuzJjNS0iWL-6" vertex="1">
                    <mxGeometry x="45" y="50" width="10" height="90" as="geometry"/>
                </mxCell>
                <mxCell id="cEPV4Jp8pSuzJjNS0iWL-8" value="写入用户配置缓存" style="edgeStyle=orthogonalEdgeStyle;rounded=0;orthogonalLoop=1;jettySize=auto;html=1;fontSize=10;" parent="347gWJok4PZvHm4m8MTc-1" edge="1">
                    <mxGeometry relative="1" as="geometry">
                        <mxPoint x="504" y="230" as="targetPoint"/>
                        <Array as="points">
                            <mxPoint x="504" y="230"/>
                        </Array>
                        <mxPoint x="375" y="230" as="sourcePoint"/>
                    </mxGeometry>
                </mxCell>
                <mxCell id="5rnwcWIkk3I-vEAtKgAx-1" value="提交结果" style="endArrow=classic;html=1;fontSize=10;entryX=1;entryY=0.346;entryDx=0;entryDy=0;entryPerimeter=0;exitX=0;exitY=0.346;exitDx=0;exitDy=0;exitPerimeter=0;" parent="347gWJok4PZvHm4m8MTc-1" edge="1">
                    <mxGeometry width="50" height="50" relative="1" as="geometry">
                        <mxPoint x="365" y="259.996" as="sourcePoint"/>
                        <mxPoint x="235" y="259.996" as="targetPoint"/>
                    </mxGeometry>
                </mxCell>
            </root>
        </mxGraphModel>
    </diagram>
    <diagram id="FDhhwFAhv5WpItgmbsHn" name="删除缓存配置">
        <mxGraphModel dx="1314" dy="776" grid="1" gridSize="10" guides="1" tooltips="1" connect="1" arrows="1" fold="1" page="1" pageScale="1" pageWidth="827" pageHeight="1169" math="0" shadow="0">
            <root>
                <mxCell id="xelb1BrMsAJrIiyQc8yh-0"/>
                <mxCell id="xelb1BrMsAJrIiyQc8yh-1" parent="xelb1BrMsAJrIiyQc8yh-0"/>
                <mxCell id="vVBG-popAw29gxYDrXYc-0" value="配置端" style="shape=umlLifeline;perimeter=lifelinePerimeter;whiteSpace=wrap;html=1;container=1;collapsible=0;recursiveResize=0;outlineConnect=0;fontSize=10;" parent="xelb1BrMsAJrIiyQc8yh-1" vertex="1">
                    <mxGeometry x="180" y="130" width="100" height="150" as="geometry"/>
                </mxCell>
                <mxCell id="vVBG-popAw29gxYDrXYc-1" value="" style="html=1;points=[];perimeter=orthogonalPerimeter;fontSize=10;" parent="vVBG-popAw29gxYDrXYc-0" vertex="1">
                    <mxGeometry x="45" y="50" width="10" height="90" as="geometry"/>
                </mxCell>
                <mxCell id="vVBG-popAw29gxYDrXYc-2" value="配置服务" style="shape=umlLifeline;perimeter=lifelinePerimeter;whiteSpace=wrap;html=1;container=1;collapsible=0;recursiveResize=0;outlineConnect=0;fontSize=10;" parent="xelb1BrMsAJrIiyQc8yh-1" vertex="1">
                    <mxGeometry x="320" y="130" width="100" height="150" as="geometry"/>
                </mxCell>
                <mxCell id="vVBG-popAw29gxYDrXYc-3" value="" style="html=1;points=[];perimeter=orthogonalPerimeter;fontSize=10;" parent="vVBG-popAw29gxYDrXYc-2" vertex="1">
                    <mxGeometry x="45" y="50" width="10" height="90" as="geometry"/>
                </mxCell>
                <mxCell id="vVBG-popAw29gxYDrXYc-4" value="删除配置" style="rounded=0;orthogonalLoop=1;jettySize=auto;html=1;fontSize=10;" parent="xelb1BrMsAJrIiyQc8yh-1" edge="1">
                    <mxGeometry relative="1" as="geometry">
                        <mxPoint x="235.0999999999999" y="200" as="sourcePoint"/>
                        <mxPoint x="365.0999999999999" y="200" as="targetPoint"/>
                    </mxGeometry>
                </mxCell>
                <mxCell id="vVBG-popAw29gxYDrXYc-5" value="etcd" style="shape=umlLifeline;perimeter=lifelinePerimeter;whiteSpace=wrap;html=1;container=1;collapsible=0;recursiveResize=0;outlineConnect=0;fontSize=10;" parent="xelb1BrMsAJrIiyQc8yh-1" vertex="1">
                    <mxGeometry x="460" y="130" width="100" height="150" as="geometry"/>
                </mxCell>
                <mxCell id="vVBG-popAw29gxYDrXYc-6" value="" style="html=1;points=[];perimeter=orthogonalPerimeter;fontSize=10;" parent="vVBG-popAw29gxYDrXYc-5" vertex="1">
                    <mxGeometry x="45" y="50" width="10" height="90" as="geometry"/>
                </mxCell>
                <mxCell id="vVBG-popAw29gxYDrXYc-7" value="删除用户缓存配置" style="edgeStyle=orthogonalEdgeStyle;rounded=0;orthogonalLoop=1;jettySize=auto;html=1;fontSize=10;" parent="xelb1BrMsAJrIiyQc8yh-1" edge="1">
                    <mxGeometry relative="1" as="geometry">
                        <mxPoint x="504" y="230" as="targetPoint"/>
                        <Array as="points">
                            <mxPoint x="504" y="230"/>
                        </Array>
                        <mxPoint x="375" y="230" as="sourcePoint"/>
                    </mxGeometry>
                </mxCell>
                <mxCell id="vVBG-popAw29gxYDrXYc-8" value="提交结果" style="endArrow=classic;html=1;fontSize=10;entryX=1;entryY=0.346;entryDx=0;entryDy=0;entryPerimeter=0;exitX=0;exitY=0.346;exitDx=0;exitDy=0;exitPerimeter=0;" parent="xelb1BrMsAJrIiyQc8yh-1" edge="1">
                    <mxGeometry width="50" height="50" relative="1" as="geometry">
                        <mxPoint x="365" y="259.9960000000001" as="sourcePoint"/>
                        <mxPoint x="235" y="259.9960000000001" as="targetPoint"/>
                    </mxGeometry>
                </mxCell>
            </root>
        </mxGraphModel>
    </diagram>
    <diagram id="6Ceoa22t9cZ7ktfSXCHu" name="配置编辑">
        <mxGraphModel dx="1314" dy="776" grid="1" gridSize="5" guides="1" tooltips="1" connect="1" arrows="1" fold="1" page="1" pageScale="1" pageWidth="827" pageHeight="1169" math="0" shadow="0">
            <root>
                <mxCell id="II5RSUHk62oNET01WcBU-0"/>
                <mxCell id="II5RSUHk62oNET01WcBU-1" parent="II5RSUHk62oNET01WcBU-0"/>
                <mxCell id="1q6dZ-OZUKm1-cO1wzfy-0" value="配置端" style="shape=umlLifeline;perimeter=lifelinePerimeter;whiteSpace=wrap;html=1;container=1;collapsible=0;recursiveResize=0;outlineConnect=0;fontSize=10;" parent="II5RSUHk62oNET01WcBU-1" vertex="1">
                    <mxGeometry x="180" y="130" width="100" height="270" as="geometry"/>
                </mxCell>
                <mxCell id="1q6dZ-OZUKm1-cO1wzfy-1" value="" style="html=1;points=[];perimeter=orthogonalPerimeter;fontSize=10;" parent="1q6dZ-OZUKm1-cO1wzfy-0" vertex="1">
                    <mxGeometry x="45" y="50" width="10" height="200" as="geometry"/>
                </mxCell>
                <mxCell id="oXQTDIycemK8rpEJjyD2-27" value="编辑配置" style="endArrow=classic;html=1;fontSize=10;rounded=0;entryX=0.981;entryY=0.805;entryDx=0;entryDy=0;entryPerimeter=0;" parent="1q6dZ-OZUKm1-cO1wzfy-0" edge="1">
                    <mxGeometry width="50" height="50" relative="1" as="geometry">
                        <mxPoint x="55.190000000000005" y="185" as="sourcePoint"/>
                        <mxPoint x="55.000000000000064" y="200.95500000000004" as="targetPoint"/>
                        <Array as="points">
                            <mxPoint x="85.19" y="185"/>
                            <mxPoint x="85.19" y="201"/>
                        </Array>
                    </mxGeometry>
                </mxCell>
                <mxCell id="1q6dZ-OZUKm1-cO1wzfy-2" value="配置服务" style="shape=umlLifeline;perimeter=lifelinePerimeter;whiteSpace=wrap;html=1;container=1;collapsible=0;recursiveResize=0;outlineConnect=0;fontSize=10;" parent="II5RSUHk62oNET01WcBU-1" vertex="1">
                    <mxGeometry x="320" y="130" width="100" height="270" as="geometry"/>
                </mxCell>
                <mxCell id="1q6dZ-OZUKm1-cO1wzfy-3" value="" style="html=1;points=[];perimeter=orthogonalPerimeter;fontSize=10;" parent="1q6dZ-OZUKm1-cO1wzfy-2" vertex="1">
                    <mxGeometry x="45" y="50" width="10" height="200" as="geometry"/>
                </mxCell>
                <mxCell id="1q6dZ-OZUKm1-cO1wzfy-6" value="保存配置" style="rounded=0;orthogonalLoop=1;jettySize=auto;html=1;fontSize=10;" parent="II5RSUHk62oNET01WcBU-1" edge="1">
                    <mxGeometry relative="1" as="geometry">
                        <mxPoint x="235.1" y="350" as="sourcePoint"/>
                        <mxPoint x="365.1" y="350" as="targetPoint"/>
                    </mxGeometry>
                </mxCell>
                <mxCell id="1q6dZ-OZUKm1-cO1wzfy-7" value="etcd" style="shape=umlLifeline;perimeter=lifelinePerimeter;whiteSpace=wrap;html=1;container=1;collapsible=0;recursiveResize=0;outlineConnect=0;fontSize=10;" parent="II5RSUHk62oNET01WcBU-1" vertex="1">
                    <mxGeometry x="460" y="130" width="100" height="270" as="geometry"/>
                </mxCell>
                <mxCell id="1q6dZ-OZUKm1-cO1wzfy-8" value="" style="html=1;points=[];perimeter=orthogonalPerimeter;fontSize=10;" parent="1q6dZ-OZUKm1-cO1wzfy-7" vertex="1">
                    <mxGeometry x="45" y="50" width="10" height="200" as="geometry"/>
                </mxCell>
                <mxCell id="1q6dZ-OZUKm1-cO1wzfy-9" value="写入用户配置缓存" style="edgeStyle=orthogonalEdgeStyle;rounded=0;orthogonalLoop=1;jettySize=auto;html=1;fontSize=10;" parent="II5RSUHk62oNET01WcBU-1" edge="1">
                    <mxGeometry relative="1" as="geometry">
                        <mxPoint x="504" y="365" as="targetPoint"/>
                        <Array as="points">
                            <mxPoint x="504" y="365"/>
                        </Array>
                        <mxPoint x="375" y="365" as="sourcePoint"/>
                    </mxGeometry>
                </mxCell>
                <mxCell id="oXQTDIycemK8rpEJjyD2-15" value="修改配置" style="shape=umlFrame;whiteSpace=wrap;html=1;width=60;height=15;fontSize=10;" parent="II5RSUHk62oNET01WcBU-1" vertex="1">
                    <mxGeometry x="240" y="190" width="260" height="115" as="geometry"/>
                </mxCell>
                <mxCell id="oXQTDIycemK8rpEJjyD2-14" value="获取目标版本配置" style="endArrow=classic;html=1;entryX=0;entryY=0.146;entryDx=0;entryDy=0;entryPerimeter=0;exitX=1.01;exitY=0.147;exitDx=0;exitDy=0;exitPerimeter=0;fontSize=10;" parent="II5RSUHk62oNET01WcBU-1" edge="1">
                    <mxGeometry width="50" height="50" relative="1" as="geometry">
                        <mxPoint x="375.0999999999999" y="234.87000000000012" as="sourcePoint"/>
                        <mxPoint x="504.9999999999998" y="234.66000000000008" as="targetPoint"/>
                    </mxGeometry>
                </mxCell>
                <mxCell id="oXQTDIycemK8rpEJjyD2-17" value="目标版本配置内容" style="endArrow=classic;html=1;fontSize=10;entryX=1;entryY=0.346;entryDx=0;entryDy=0;entryPerimeter=0;exitX=0;exitY=0.346;exitDx=0;exitDy=0;exitPerimeter=0;" parent="II5RSUHk62oNET01WcBU-1" edge="1">
                    <mxGeometry width="50" height="50" relative="1" as="geometry">
                        <mxPoint x="505" y="253.92600000000004" as="sourcePoint"/>
                        <mxPoint x="375" y="253.92600000000004" as="targetPoint"/>
                    </mxGeometry>
                </mxCell>
                <mxCell id="oXQTDIycemK8rpEJjyD2-26" value="目标版本配置内容" style="endArrow=classic;html=1;fontSize=10;exitX=0.481;exitY=0.714;exitDx=0;exitDy=0;exitPerimeter=0;entryX=1.029;entryY=0.347;entryDx=0;entryDy=0;entryPerimeter=0;" parent="II5RSUHk62oNET01WcBU-1" edge="1">
                    <mxGeometry width="50" height="50" relative="1" as="geometry">
                        <mxPoint x="364.97999999999996" y="295.0000000000001" as="sourcePoint"/>
                        <mxPoint x="235.20999999999998" y="295.177" as="targetPoint"/>
                    </mxGeometry>
                </mxCell>
                <mxCell id="oXQTDIycemK8rpEJjyD2-0" value="获取目标版本配置" style="endArrow=classic;html=1;exitX=1;exitY=0.095;exitDx=0;exitDy=0;exitPerimeter=0;entryX=-0.053;entryY=0.096;entryDx=0;entryDy=0;entryPerimeter=0;fontSize=10;" parent="II5RSUHk62oNET01WcBU-1" edge="1">
                    <mxGeometry width="50" height="50" relative="1" as="geometry">
                        <mxPoint x="235" y="215.95000000000005" as="sourcePoint"/>
                        <mxPoint x="364.47" y="216.15999999999997" as="targetPoint"/>
                    </mxGeometry>
                </mxCell>
                <mxCell id="Kl6u8DrjfM0yO60e9N_o-0" value="复制目标版本配置&lt;br&gt;至用户配置缓存" style="endArrow=classic;html=1;fontSize=10;" parent="II5RSUHk62oNET01WcBU-1" edge="1">
                    <mxGeometry width="50" height="50" relative="1" as="geometry">
                        <mxPoint x="375" y="275" as="sourcePoint"/>
                        <mxPoint x="505" y="275" as="targetPoint"/>
                    </mxGeometry>
                </mxCell>
            </root>
        </mxGraphModel>
    </diagram>
    <diagram id="J7kVp__1CWum4X2jKdGe" name="版本提交">
        <mxGraphModel dx="1314" dy="776" grid="1" gridSize="5" guides="1" tooltips="1" connect="1" arrows="1" fold="1" page="1" pageScale="1" pageWidth="827" pageHeight="1169" math="0" shadow="0">
            <root>
                <mxCell id="-DYnJunYGg2rgk8KWByQ-0"/>
                <mxCell id="-DYnJunYGg2rgk8KWByQ-1" parent="-DYnJunYGg2rgk8KWByQ-0"/>
                <mxCell id="-eY6tJXxqFQl8I7pCIEC-0" value="配置端" style="shape=umlLifeline;perimeter=lifelinePerimeter;whiteSpace=wrap;html=1;container=1;collapsible=0;recursiveResize=0;outlineConnect=0;fontSize=10;" parent="-DYnJunYGg2rgk8KWByQ-1" vertex="1">
                    <mxGeometry x="180" y="170" width="100" height="330" as="geometry"/>
                </mxCell>
                <mxCell id="-eY6tJXxqFQl8I7pCIEC-1" value="" style="html=1;points=[];perimeter=orthogonalPerimeter;fontSize=10;" parent="-eY6tJXxqFQl8I7pCIEC-0" vertex="1">
                    <mxGeometry x="45" y="60" width="10" height="250" as="geometry"/>
                </mxCell>
                <mxCell id="-eY6tJXxqFQl8I7pCIEC-2" value="配置服务" style="shape=umlLifeline;perimeter=lifelinePerimeter;whiteSpace=wrap;html=1;container=1;collapsible=0;recursiveResize=0;outlineConnect=0;fontSize=10;" parent="-DYnJunYGg2rgk8KWByQ-1" vertex="1">
                    <mxGeometry x="320" y="170" width="100" height="330" as="geometry"/>
                </mxCell>
                <mxCell id="-eY6tJXxqFQl8I7pCIEC-3" value="" style="html=1;points=[];perimeter=orthogonalPerimeter;fontSize=10;" parent="-eY6tJXxqFQl8I7pCIEC-2" vertex="1">
                    <mxGeometry x="45" y="60" width="10" height="250" as="geometry"/>
                </mxCell>
                <mxCell id="-eY6tJXxqFQl8I7pCIEC-4" value="提交版本" style="edgeStyle=orthogonalEdgeStyle;rounded=0;orthogonalLoop=1;jettySize=auto;html=1;fontSize=10;" parent="-DYnJunYGg2rgk8KWByQ-1" edge="1">
                    <mxGeometry relative="1" as="geometry">
                        <Array as="points">
                            <mxPoint x="300" y="251"/>
                            <mxPoint x="300" y="251"/>
                        </Array>
                        <mxPoint x="235" y="251" as="sourcePoint"/>
                        <mxPoint x="365" y="251" as="targetPoint"/>
                    </mxGeometry>
                </mxCell>
                <mxCell id="-eY6tJXxqFQl8I7pCIEC-5" value="etcd" style="shape=umlLifeline;perimeter=lifelinePerimeter;whiteSpace=wrap;html=1;container=1;collapsible=0;recursiveResize=0;outlineConnect=0;fontSize=10;" parent="-DYnJunYGg2rgk8KWByQ-1" vertex="1">
                    <mxGeometry x="460" y="170" width="100" height="330" as="geometry"/>
                </mxCell>
                <mxCell id="-eY6tJXxqFQl8I7pCIEC-6" value="" style="html=1;points=[];perimeter=orthogonalPerimeter;fontSize=10;" parent="-eY6tJXxqFQl8I7pCIEC-5" vertex="1">
                    <mxGeometry x="45" y="60" width="10" height="250" as="geometry"/>
                </mxCell>
                <mxCell id="qTQMT7hOpY8bRpjkQMIU-0" value="加锁" style="endArrow=classic;html=1;fontSize=10;" parent="-DYnJunYGg2rgk8KWByQ-1" edge="1">
                    <mxGeometry width="50" height="50" relative="1" as="geometry">
                        <mxPoint x="375" y="270" as="sourcePoint"/>
                        <mxPoint x="505" y="270" as="targetPoint"/>
                    </mxGeometry>
                </mxCell>
                <mxCell id="CSEYJ5SGYVYqvFHrJ38q-0" value="加锁成功" style="shape=umlFrame;whiteSpace=wrap;html=1;width=60;height=15;fontSize=10;" parent="-DYnJunYGg2rgk8KWByQ-1" vertex="1">
                    <mxGeometry x="240" y="280" width="260" height="145" as="geometry"/>
                </mxCell>
                <mxCell id="CSEYJ5SGYVYqvFHrJ38q-1" value="加锁失败" style="shape=umlFrame;whiteSpace=wrap;html=1;width=60;height=15;fontSize=10;" parent="-DYnJunYGg2rgk8KWByQ-1" vertex="1">
                    <mxGeometry x="240" y="435" width="120" height="35" as="geometry"/>
                </mxCell>
                <mxCell id="CSEYJ5SGYVYqvFHrJ38q-2" value="提交失败" style="endArrow=classic;html=1;fontSize=10;" parent="-DYnJunYGg2rgk8KWByQ-1" edge="1">
                    <mxGeometry width="50" height="50" relative="1" as="geometry">
                        <mxPoint x="365" y="457.16" as="sourcePoint"/>
                        <mxPoint x="235" y="457.16" as="targetPoint"/>
                    </mxGeometry>
                </mxCell>
                <mxCell id="-eY6tJXxqFQl8I7pCIEC-8" value="获取用户配置缓存" style="edgeStyle=orthogonalEdgeStyle;rounded=0;orthogonalLoop=1;jettySize=auto;html=1;entryX=-0.1;entryY=0.235;entryDx=0;entryDy=0;entryPerimeter=0;exitX=1;exitY=0.235;exitDx=0;exitDy=0;exitPerimeter=0;fontSize=10;" parent="-DYnJunYGg2rgk8KWByQ-1" edge="1">
                    <mxGeometry relative="1" as="geometry">
                        <mxPoint x="375" y="295" as="sourcePoint"/>
                        <mxPoint x="504" y="295" as="targetPoint"/>
                        <Array as="points"/>
                    </mxGeometry>
                </mxCell>
                <mxCell id="-eY6tJXxqFQl8I7pCIEC-7" value="配置缓存" style="edgeStyle=orthogonalEdgeStyle;rounded=0;orthogonalLoop=1;jettySize=auto;html=1;startArrow=classic;startFill=1;endArrow=none;endFill=0;fontSize=10;" parent="-DYnJunYGg2rgk8KWByQ-1" edge="1">
                    <mxGeometry relative="1" as="geometry">
                        <mxPoint x="504" y="320" as="targetPoint"/>
                        <Array as="points">
                            <mxPoint x="504" y="320"/>
                        </Array>
                        <mxPoint x="375" y="320" as="sourcePoint"/>
                    </mxGeometry>
                </mxCell>
                <mxCell id="-eY6tJXxqFQl8I7pCIEC-12" value="将配置缓存&lt;br style=&quot;font-size: 10px;&quot;&gt;作为最新版本写入" style="endArrow=classic;html=1;fontSize=10;" parent="-DYnJunYGg2rgk8KWByQ-1" edge="1">
                    <mxGeometry width="50" height="50" relative="1" as="geometry">
                        <mxPoint x="375" y="345" as="sourcePoint"/>
                        <mxPoint x="505" y="345" as="targetPoint"/>
                    </mxGeometry>
                </mxCell>
                <mxCell id="dxoKEZGAAR_oU9fGiMAX-0" value="解锁" style="endArrow=none;html=1;startArrow=classic;startFill=1;endFill=0;fontSize=10;" parent="-DYnJunYGg2rgk8KWByQ-1" edge="1">
                    <mxGeometry width="50" height="50" relative="1" as="geometry">
                        <mxPoint x="375" y="395" as="sourcePoint"/>
                        <mxPoint x="505" y="395" as="targetPoint"/>
                        <Array as="points">
                            <mxPoint x="440" y="395"/>
                        </Array>
                    </mxGeometry>
                </mxCell>
                <mxCell id="-eY6tJXxqFQl8I7pCIEC-13" value="提交成功，返回版本号" style="endArrow=none;html=1;startArrow=classic;startFill=1;endFill=0;fontSize=10;" parent="-DYnJunYGg2rgk8KWByQ-1" edge="1">
                    <mxGeometry width="50" height="50" relative="1" as="geometry">
                        <mxPoint x="235" y="415" as="sourcePoint"/>
                        <mxPoint x="365" y="415" as="targetPoint"/>
                    </mxGeometry>
                </mxCell>
                <mxCell id="ukYrH6UOgs16WxmyRqD5-0" value="清除用户配置缓存" style="endArrow=classic;html=1;fontSize=10;" parent="-DYnJunYGg2rgk8KWByQ-1" edge="1">
                    <mxGeometry width="50" height="50" relative="1" as="geometry">
                        <mxPoint x="375.0000000000001" y="370" as="sourcePoint"/>
                        <mxPoint x="505" y="370" as="targetPoint"/>
                    </mxGeometry>
                </mxCell>
            </root>
        </mxGraphModel>
    </diagram>
</mxfile>